<svg xmlns="http://www.w3.org/2000/svg" width="600" height="800" viewBox="0 0 600 800">
  <defs>
    <linearGradient id="bg" x1="0%" y1="0%" x2="100%" y2="100%">
      <stop offset="0%" style="stop-color:#e8f5e9"/>
      <stop offset="100%" style="stop-color:#c8e6c9"/>
    </linearGradient>
    <linearGradient id="fabric" x1="0%" y1="0%" x2="0%" y2="100%">
      <stop offset="0%" style="stop-color:#2e7d32;stop-opacity:0.1"/>
      <stop offset="100%" style="stop-color:#1b5e20;stop-opacity:0.15"/>
    </linearGradient>
  </defs>
  <rect width="600" height="800" fill="url(#bg)"/>
  <path d="M0 200 Q150 170 300 200 T600 200 L600 240 Q450 210 300 240 T0 240Z" fill="url(#fabric)"/>
  <path d="M0 360 Q150 330 300 360 T600 360 L600 400 Q450 370 300 400 T0 400Z" fill="url(#fabric)"/>
  <path d="M0 520 Q150 490 300 520 T600 520 L600 560 Q450 530 300 560 T0 560Z" fill="url(#fabric)"/>
  <circle cx="300" cy="400" r="80" fill="white" opacity="0.5"/>
  <text x="300" y="390" text-anchor="middle" font-family="serif" font-size="48" fill="#2e7d32" opacity="0.7">🌿</text>
  <text x="300" y="430" text-anchor="middle" font-family="serif" font-size="20" fill="#1b5e20" font-weight="bold">COTTON</text>
</svg>

