<svg xmlns="http://www.w3.org/2000/svg" width="600" height="800" viewBox="0 0 600 800">
  <defs>
    <linearGradient id="bg" x1="0%" y1="0%" x2="100%" y2="100%">
      <stop offset="0%" style="stop-color:#f3e5f5"/>
      <stop offset="100%" style="stop-color:#e1bee7"/>
    </linearGradient>
    <linearGradient id="sparkle" x1="0%" y1="0%" x2="100%" y2="100%">
      <stop offset="0%" style="stop-color:#9c27b0;stop-opacity:0.1"/>
      <stop offset="100%" style="stop-color:#6a1b9a;stop-opacity:0.15"/>
    </linearGradient>
  </defs>
  <rect width="600" height="800" fill="url(#bg)"/>
  <!-- Sparkle dots -->
  <circle cx="100" cy="150" r="4" fill="#9c27b0" opacity="0.3"/>
  <circle cx="250" cy="100" r="3" fill="#9c27b0" opacity="0.2"/>
  <circle cx="400" cy="180" r="5" fill="#9c27b0" opacity="0.25"/>
  <circle cx="500" cy="120" r="3" fill="#9c27b0" opacity="0.3"/>
  <circle cx="150" cy="650" r="4" fill="#9c27b0" opacity="0.2"/>
  <circle cx="350" cy="700" r="3" fill="#9c27b0" opacity="0.25"/>
  <circle cx="500" cy="680" r="5" fill="#9c27b0" opacity="0.3"/>
  <path d="M0 250 Q300 200 600 250 L600 300 Q300 250 0 300Z" fill="url(#sparkle)"/>
  <path d="M0 450 Q300 400 600 450 L600 500 Q300 450 0 500Z" fill="url(#sparkle)"/>
  <circle cx="300" cy="400" r="80" fill="white" opacity="0.5"/>
  <text x="300" y="390" text-anchor="middle" font-family="serif" font-size="48" fill="#7b1fa2" opacity="0.7">✨</text>
  <text x="300" y="430" text-anchor="middle" font-family="serif" font-size="18" fill="#4a148c" font-weight="bold">PARTY WEAR</text>
</svg>

